%TF.GenerationSoftware,KiCad,Pcbnew,7.0.7*%
%TF.CreationDate,2024-04-29T21:33:31+09:00*%
%TF.ProjectId,l298n,6c323938-6e2e-46b6-9963-61645f706362,rev?*%
%TF.SameCoordinates,Original*%
%TF.FileFunction,Copper,L1,Top*%
%TF.FilePolarity,Positive*%
%FSLAX46Y46*%
G04 Gerber Fmt 4.6, Leading zero omitted, Abs format (unit mm)*
G04 Created by KiCad (PCBNEW 7.0.7) date 2024-04-29 21:33:31*
%MOMM*%
%LPD*%
G01*
G04 APERTURE LIST*
%TA.AperFunction,ComponentPad*%
%ADD10C,2.032000*%
%TD*%
%TA.AperFunction,ComponentPad*%
%ADD11R,1.800000X1.800000*%
%TD*%
%TA.AperFunction,ComponentPad*%
%ADD12O,1.800000X1.800000*%
%TD*%
%TA.AperFunction,ViaPad*%
%ADD13C,0.800000*%
%TD*%
%TA.AperFunction,Conductor*%
%ADD14C,0.250000*%
%TD*%
G04 APERTURE END LIST*
D10*
%TO.P,J4,1,1*%
%TO.N,/l298/OUT_A*%
X113089999Y-111163401D03*
%TO.P,J4,2,2*%
%TO.N,/l298/OUT_B*%
X113089999Y-118783401D03*
%TD*%
%TO.P,J3,3,3*%
%TO.N,/l298/IN1*%
X113010001Y-84606600D03*
%TO.P,J3,2,2*%
%TO.N,/l298/IN2*%
X113010001Y-92226600D03*
%TO.P,J3,1,1*%
%TO.N,/l298/Enable*%
X113010001Y-99846600D03*
%TD*%
%TO.P,J2,1,1*%
%TO.N,/l298/5V*%
X123275000Y-118740000D03*
%TO.P,J2,2,2*%
%TO.N,GND*%
X130895000Y-118740000D03*
%TD*%
%TO.P,J1,2,2*%
%TO.N,GND*%
X131008401Y-84750001D03*
%TO.P,J1,1,1*%
%TO.N,/l298/12V*%
X123388401Y-84750001D03*
%TD*%
D11*
%TO.P,U1,1,SENSE_A*%
%TO.N,/l298/SENSE*%
X123720000Y-93990000D03*
D12*
%TO.P,U1,2,OUT1*%
%TO.N,/l298/OUT_A*%
X128800000Y-95260000D03*
%TO.P,U1,3,OUT2*%
%TO.N,/l298/OUT_B*%
X123720000Y-96530000D03*
%TO.P,U1,4,Vs*%
%TO.N,/l298/12V*%
X128800000Y-97800000D03*
%TO.P,U1,5,IN1*%
%TO.N,/l298/IN1*%
X123720000Y-99070000D03*
%TO.P,U1,6,EnA*%
%TO.N,/l298/Enable*%
X128800000Y-100340000D03*
%TO.P,U1,7,IN2*%
%TO.N,/l298/IN2*%
X123720000Y-101610000D03*
%TO.P,U1,8,GND*%
%TO.N,GND*%
X128800000Y-102880000D03*
%TO.P,U1,9,Vss*%
%TO.N,/l298/5V*%
X123720000Y-104150000D03*
%TO.P,U1,10,IN3*%
%TO.N,/l298/IN1*%
X128800000Y-105420000D03*
%TO.P,U1,11,EnB*%
%TO.N,/l298/Enable*%
X123720000Y-106690000D03*
%TO.P,U1,12,IN4*%
%TO.N,/l298/IN2*%
X128800000Y-107960000D03*
%TO.P,U1,13,OUT3*%
%TO.N,/l298/OUT_A*%
X123720000Y-109230000D03*
%TO.P,U1,14,OUT4*%
%TO.N,/l298/OUT_B*%
X128800000Y-110500000D03*
%TO.P,U1,15,SENSE_B*%
%TO.N,/l298/SENSE*%
X123720000Y-111770000D03*
%TD*%
D13*
%TO.N,/l298/IN1*%
X126200000Y-102900000D03*
X126140000Y-99130000D03*
X116930000Y-99010000D03*
X116900000Y-84570000D03*
%TO.N,/l298/IN2*%
X125230000Y-107930000D03*
X125260000Y-101630000D03*
X118460000Y-101600000D03*
X118370000Y-92210000D03*
%TO.N,/l298/SENSE*%
X131732901Y-94140000D03*
X131460000Y-106185000D03*
X131530000Y-111640000D03*
%TO.N,/l298/Enable*%
X127120000Y-106740000D03*
X127120000Y-100470000D03*
X119570000Y-99890000D03*
X119570000Y-106740000D03*
%TO.N,GND*%
X131470000Y-102880000D03*
%TO.N,/l298/12V*%
X123430000Y-87400000D03*
X126180000Y-97800000D03*
X126220000Y-87460000D03*
%TO.N,GND*%
X131460000Y-104435000D03*
X133880000Y-102800000D03*
X133910000Y-115380000D03*
X130910000Y-115380000D03*
%TO.N,/l298/5V*%
X126200000Y-104180000D03*
X123300000Y-115350000D03*
X126200000Y-115410000D03*
%TO.N,/l298/OUT_A*%
X121610000Y-95260000D03*
X121520000Y-109310000D03*
X121490000Y-111210000D03*
%TO.N,/l298/OUT_B*%
X120630000Y-114370000D03*
X120600000Y-96560000D03*
X116780000Y-118860000D03*
X116750000Y-114370000D03*
X128770000Y-114370000D03*
%TD*%
D14*
%TO.N,/l298/IN1*%
X126140000Y-102840000D02*
X126200000Y-102900000D01*
X126140000Y-99130000D02*
X126140000Y-102840000D01*
X116900000Y-98980000D02*
X116930000Y-99010000D01*
X116900000Y-84570000D02*
X116900000Y-98980000D01*
%TO.N,/l298/IN2*%
X125260000Y-107900000D02*
X125230000Y-107930000D01*
X125260000Y-101630000D02*
X125260000Y-107900000D01*
X118370000Y-101510000D02*
X118460000Y-101600000D01*
X118370000Y-92210000D02*
X118370000Y-101510000D01*
%TO.N,/l298/SENSE*%
X131732901Y-94140000D02*
X132195000Y-94602099D01*
X132195000Y-94602099D02*
X132195000Y-105450000D01*
X132195000Y-105450000D02*
X131460000Y-106185000D01*
X131530000Y-106255000D02*
X131460000Y-106185000D01*
X131530000Y-111640000D02*
X131530000Y-106255000D01*
%TO.N,/l298/Enable*%
X127120000Y-106740000D02*
X127120000Y-100470000D01*
X119570000Y-99890000D02*
X119570000Y-106740000D01*
%TO.N,GND*%
X131008401Y-102418401D02*
X131470000Y-102880000D01*
X131008401Y-84750001D02*
X131008401Y-102418401D01*
%TO.N,/l298/12V*%
X123388401Y-87358401D02*
X123388401Y-84750001D01*
X123430000Y-87400000D02*
X123388401Y-87358401D01*
X126180000Y-87500000D02*
X126220000Y-87460000D01*
X126180000Y-97800000D02*
X126180000Y-87500000D01*
%TO.N,GND*%
X131470000Y-104425000D02*
X131460000Y-104435000D01*
X131470000Y-102880000D02*
X131470000Y-104425000D01*
X133910000Y-102830000D02*
X133880000Y-102800000D01*
X133910000Y-115380000D02*
X133910000Y-102830000D01*
X130895000Y-115395000D02*
X130910000Y-115380000D01*
X130895000Y-118740000D02*
X130895000Y-115395000D01*
%TO.N,/l298/5V*%
X126200000Y-115410000D02*
X126200000Y-104180000D01*
X123275000Y-115375000D02*
X123300000Y-115350000D01*
X123275000Y-118740000D02*
X123275000Y-115375000D01*
%TO.N,/l298/OUT_A*%
X121610000Y-95260000D02*
X121610000Y-109220000D01*
X121610000Y-109220000D02*
X121520000Y-109310000D01*
X121490000Y-109340000D02*
X121520000Y-109310000D01*
X121490000Y-111210000D02*
X121490000Y-109340000D01*
%TO.N,/l298/OUT_B*%
X120600000Y-114340000D02*
X120630000Y-114370000D01*
X120600000Y-96560000D02*
X120600000Y-114340000D01*
X128800000Y-114340000D02*
X128800000Y-110500000D01*
X128770000Y-114370000D02*
X128800000Y-114340000D01*
X116780000Y-114400000D02*
X116750000Y-114370000D01*
X116780000Y-118860000D02*
X116780000Y-114400000D01*
%TD*%
M02*
